# xmcd
#
# Track frame offsets:
# 150
# 17282
# 34177
# 51585
# 69735
# 87180
# 104300
# 121387
# 138447
# 155565
# 172490
# 190825
# 207675
#
# Disc length: 2993 seconds
#
#
# Revision: 0
# Processed by: cddbd v1.5.1PL0 Copyright (c) Steve Scherf et al.
# Submitted via: FreeRIP 2.931 
#
DISCID=c10baf0d
DTITLE=Kenny Reese and Thorsten Geppert - On And On
DYEAR=1900
DGENRE=Square Dance
TTITLE0=It's So Nice To Be With You
TTITLE1=Beautiful Brown Eyes
TTITLE2=On And On
TTITLE3=It Turns Me Inside Out
TTITLE4=Western Skies
TTITLE5=Play Me Some Rag
TTITLE6=I Want To Be Back Home In Nashville
TTITLE7=Under The Boardwalk
TTITLE8=Do Run Run
TTITLE9=Do Remember Me
TTITLE10=Why Don't You Spend The Night
TTITLE11=High Cotton
TTITLE12=Now Is The Hour
EXTD=Square Dance Singing Calls
EXTT0=
EXTT1=
EXTT2=
EXTT3=
EXTT4=
EXTT5=
EXTT6=
EXTT7=
EXTT8=
EXTT9=
EXTT10=
EXTT11=
EXTT12=
PLAYORDER=
